# xmcd
# 
# Track frame offsets:
#     150
#     24262
#     47657
#     71032
#     104025
#     120005
#     147007
#     167935
#     188942
#     209907
# 
# Disc length: 3055
# 
# Revision: 2
# Processed by: cddbd v1.5.2PL0 Copyright (c) Steve Scherf et al.
# Submitted via: fre:ac v1.1rc1
# 
DISCID=910bed0a
DTITLE=深津純子 - Catch A Rainbow
DYEAR=2003
DGENRE=J-Jazz
TTITLE0=To Catch a Rainbow
TTITLE1=Maria Cervantes
TTITLE2=Arena Calliente
TTITLE3=Dark Skin
TTITLE4=Cookin' (「きょうの料理」のテーマ)
TTITLE5=Over The Rainbow (虹の彼方に)
TTITLE6=Beautiful Love
TTITLE7=Mambo Influenenciado
TTITLE8=The Rain will be Over
TTITLE9=Tamarindo
EXTD=YEAR: 2003
EXTT0=
EXTT1=
EXTT2=
EXTT3=
EXTT4=
EXTT5=
EXTT6=
EXTT7=
EXTT8=
EXTT9=
PLAYORDER=
